<?xml version="1.0" encoding="UTF-8"?>
<svg id="logo" data-name="Logo" xmlns="http://www.w3.org/2000/svg" viewBox="0 0 54.72 54.48">
  <defs>
    <style>
      .cls-1 {
        fill: #80ffdb;
        stroke: #80ffdb;
      },
      .cls-2 {
        fill: #fff;
        stroke: #fff;
      }
    </style>
  </defs>
  <path  d="M0,0c18.24,0,36.48,0,54.72,0,0,18.16,0,36.32,0,54.48-18.24,0-36.48,0-54.72,0C0,36.32,0,18.16,0,0ZM27.58,2.12c-7.96,0-15.92,0-23.88,0-1.5,0-1.57,.06-1.57,1.53,0,15.84,0,31.69,0,47.53,0,1.46,.19,1.63,1.68,1.63,15.8,0,31.61,0,47.41,0,1.46,0,1.63-.18,1.63-1.68,0-15.8,0-31.61,0-47.41,0-1.56-.05-1.6-1.62-1.6-7.88,0-15.76,0-23.65,0Z"/>
  <path d="M27.58,2.12c7.88,0,15.76,0,23.65,0,1.57,0,1.62,.05,1.62,1.6,0,15.8,0,31.61,0,47.41,0,1.5-.17,1.68-1.63,1.68-15.8,0-31.61,0-47.41,0-1.49,0-1.68-.18-1.68-1.63,0-15.84,0-31.69,0-47.53,0-1.46,.07-1.53,1.57-1.53,7.96,0,15.92,0,23.88,0ZM3.63,27.36c0,7.49,.03,14.97-.03,22.46,0,1.23,.37,1.53,1.56,1.53,14.85-.04,29.71-.02,44.56-.02,1.59,0,1.59,0,1.59-1.56,0-14.89-.01-29.79,.02-44.68,0-1.11-.24-1.5-1.43-1.5-14.97,.04-29.95,.04-44.92,0-1.14,0-1.38,.38-1.38,1.43,.04,7.45,.02,14.89,.02,22.34Z"/>
  <path d="M3.63,27.36c0-7.45,.02-14.89-.02-22.34,0-1.05,.24-1.43,1.38-1.43,14.97,.04,29.95,.04,44.92,0,1.19,0,1.44,.38,1.43,1.5-.03,14.89-.02,29.79-.02,44.68,0,1.55,0,1.56-1.59,1.56-14.85,0-29.71-.01-44.56,.02-1.19,0-1.57-.3-1.56-1.53,.06-7.49,.03-14.97,.03-22.46Zm36.82,22.4c1.63-.11,3.26-.15,4.87-.37,.52-.07,1.22-.53,1.41-.99,1.86-4.47,2.27-9.07,.93-13.75-.42-1.48-1.04-2.92-1.69-4.32-.15-.34-.77-.46-1.17-.68-.05,.41-.2,.83-.13,1.22,.08,.46,.34,.88,.53,1.32,2.05,4.82,2.22,9.71,.49,14.65-.15,.44-.67,1.04-1.04,1.06-3.69,.24-7.43,.61-11-.63-3.98-1.38-7.1-4.07-9.94-7.11-.51-.55-.89-1.22-1.43-1.73-.26-.24-.74-.25-1.13-.36,0,.41-.04,.83,.02,1.24,.03,.21,.23,.42,.39,.58,1.36,1.38,2.68,2.81,4.1,4.12,4.16,3.85,8.99,6.05,14.78,5.75ZM49.33,14.76c-.11-1.55-.25-3.09-.33-4.64-.04-.83-.41-1.29-1.18-1.58-3.52-1.31-7.14-2.09-10.86-1.33-2.43,.5-4.77,1.43-7.12,2.24-.28,.1-.39,.69-.58,1.05,.41,.08,.82,.18,1.23,.22,.13,.01,.28-.13,.43-.2,5.07-2.31,10.26-2.64,15.55-.85,.4,.14,.96,.58,1,.93,.39,3.85,.67,7.75-.74,11.44-1.71,4.47-4.81,7.94-8.52,10.92-.31,.25-.64,.92-.51,1.2,.34,.79,.95,.32,1.35-.02,1.29-1.12,2.61-2.21,3.77-3.46,4.16-4.48,7-9.52,6.53-15.93ZM5.61,40.62c.14,1.97,.3,3.55,.35,5.14,.03,.87,.45,1.27,1.2,1.55,4.27,1.6,8.64,2.09,13.08,.91,1.68-.45,3.28-1.17,4.88-1.87,.32-.14,.44-.73,.65-1.11-.38-.08-.76-.19-1.15-.21-.17-.01-.36,.16-.54,.24-4.57,2.09-9.29,2.67-14.16,1.3-2.99-.84-2.36-.36-2.55-3.08-.03-.36-.07-.71-.08-1.07-.15-4.17,.11-8.24,2.56-11.88,1.98-2.95,4.27-5.61,7.08-7.8,.27-.21,.38-.69,.46-1.07,.02-.08-.45-.4-.62-.36-.37,.09-.75,.3-1.02,.56-1.73,1.69-3.56,3.29-5.1,5.14-2.14,2.56-4.03,5.33-4.52,8.76-.24,1.73-.37,3.47-.51,4.84ZM14.37,5.91l-.04,.18c-1.43,.1-2.85,.28-4.28,.28-1.16,0-1.72,.54-2.09,1.55-2.08,5.73-1.94,11.37,.72,16.89,.26,.54,1.11,1.38,1.31,1.29,1.07-.51,.27-1.26,0-1.88-2.25-5.02-2.49-10.13-.72-15.32,.14-.41,.71-.92,1.12-.96,1.98-.16,3.97-.28,5.95-.21,2.47,.09,4.94,.44,7.12,1.69,3.5,2.01,6.57,4.57,9.06,7.77,.34,.44,.62,1.07,1.28,.52,.7-.57,.16-1.08-.23-1.5-1.29-1.4-2.51-2.89-3.94-4.14-2.48-2.17-5.07-4.28-8.34-5.09-2.26-.55-4.61-.73-6.91-1.08Zm13.42,13.49c-.42,.31-.84,.63-1.26,.94,.44,.29,.84,.75,1.31,.85,1.16,.25,2.36,.27,3.53,.49,3.91,.76,7.3,2.55,10.23,5.25,.26,.24,.79,.18,1.2,.26-.07-.42-.1-.84-.22-1.24-.05-.17-.26-.29-.41-.42-4.03-3.67-8.81-5.53-14.39-6.14Zm8.01,8.5c-.12-.14-.43-.52-.74-.89-.29,.4-.8,.77-.83,1.19-.41,5.18-1.96,9.85-5.7,13.65-.29,.29-.21,.95-.3,1.43,.43-.15,.97-.18,1.26-.47,4.12-3.95,5.8-8.98,6.31-14.92Zm-16.64,.1c.09,.11,.39,.5,.69,.89,.3-.39,.62-.77,.89-1.17,.08-.11,.02-.31,.03-.47,.29-3.19,.91-6.32,2.6-9.09,.96-1.58,2.2-2.99,3.27-4.51,.15-.22,.19-.81,.08-.87-.28-.16-.71-.23-1.01-.12-.31,.11-.54,.46-.77,.73-3.6,4.04-5.36,8.84-5.78,14.62Zm7.35,8.12c.35,.04,.74,.19,1.05,.09,.33-.1,.58-.44,.86-.67-.23-.28-.43-.62-.72-.82-.2-.14-.54-.07-.82-.09-5.07-.46-9.68-1.99-13.38-5.7-.25-.25-.85-.15-1.29-.22,.09,.39,.05,.91,.29,1.16,3.79,4.01,8.64,5.72,14,6.24Z"/>
  <path class="cls-1" d="M40.46,49.76c-5.8,.29-10.62-1.91-14.78-5.75-1.42-1.31-2.74-2.74-4.1-4.12-.16-.17-.36-.37-.39-.58-.06-.4-.02-.82-.02-1.24,.38,.11,.87,.12,1.13,.36,.54,.51,.92,1.19,1.43,1.73,2.84,3.03,5.96,5.73,9.94,7.11,3.57,1.24,7.31,.88,11,.63,.38-.02,.89-.62,1.04-1.06,1.73-4.94,1.56-9.83-.49-14.65-.19-.44-.45-.86-.53-1.32-.07-.39,.08-.81,.13-1.22,.4,.22,1.02,.35,1.17,.68,.64,1.4,1.26,2.84,1.69,4.32,1.34,4.68,.93,9.29-.93,13.75-.19,.46-.89,.91-1.41,.99-1.61,.22-3.24,.26-4.87,.37Z"/>
  <path class="cls-1" d="M49.33,14.76c.48,6.41-2.37,11.45-6.53,15.93-1.16,1.25-2.48,2.34-3.77,3.46-.39,.34-1,.81-1.35,.02-.12-.28,.2-.95,.51-1.2,3.7-2.97,6.81-6.45,8.52-10.92,1.41-3.68,1.14-7.59,.74-11.44-.04-.35-.59-.79-1-.93-5.29-1.79-10.48-1.46-15.55,.85-.14,.07-.29,.21-.43,.2-.41-.04-.82-.14-1.23-.22,.19-.36,.3-.95,.58-1.05,2.35-.81,4.7-1.74,7.12-2.24,3.72-.77,7.34,.02,10.86,1.33,.77,.29,1.14,.75,1.18,1.58,.08,1.55,.22,3.09,.33,4.64Z"/>
  <path class="cls-1" d="M5.61,40.62c.14-1.37,.26-3.11,.51-4.84,.48-3.44,2.37-6.21,4.52-8.76,1.54-1.84,3.37-3.45,5.1-5.14,.27-.26,.65-.47,1.02-.56,.18-.04,.64,.28,.62,.36-.08,.38-.18,.85-.46,1.07-2.81,2.2-5.09,4.85-7.08,7.8-2.44,3.63-2.71,7.7-2.56,11.88,.01,.36,.06,.71,.08,1.07,.2,2.73-.44,2.24,2.55,3.08,4.87,1.37,9.6,.79,14.16-1.3,.18-.08,.36-.25,.54-.24,.39,.02,.77,.14,1.15,.21-.21,.38-.33,.97-.65,1.11-1.6,.7-3.2,1.42-4.88,1.87-4.44,1.18-8.81,.69-13.08-.91-.75-.28-1.17-.68-1.2-1.55-.05-1.59-.21-3.17-.35-5.14Z"/>
  <path class="cls-1" d="M14.37,5.91c2.31,.34,4.66,.52,6.91,1.08,3.28,.8,5.87,2.92,8.34,5.09,1.43,1.25,2.65,2.74,3.94,4.14,.39,.43,.93,.93,.23,1.5-.67,.54-.94-.08-1.28-.52-2.49-3.2-5.56-5.76-9.06-7.77-2.18-1.26-4.66-1.6-7.12-1.69-1.98-.08-3.97,.05-5.95,.21-.41,.03-.98,.54-1.12,.96-1.77,5.19-1.53,10.31,.72,15.32,.28,.62,1.08,1.38,0,1.88-.2,.09-1.04-.74-1.31-1.29-2.65-5.51-2.8-11.15-.72-16.89,.37-1.01,.93-1.55,2.09-1.55,1.43,0,2.85-.18,4.28-.28l.04-.18Z"/>
  <path class="cls-1" d="M27.8,19.4c5.58,.61,10.36,2.47,14.39,6.14,.15,.13,.36,.26,.41,.42,.12,.4,.15,.83,.22,1.24-.41-.08-.94-.02-1.2-.26-2.93-2.7-6.32-4.49-10.23-5.25-1.17-.23-2.37-.25-3.53-.49-.48-.1-.88-.56-1.31-.85,.42-.31,.84-.63,1.26-.94Z"/>
  <path class="cls-1" d="M35.81,27.89c-.5,5.94-2.18,10.97-6.31,14.92-.3,.28-.84,.32-1.26,.47,.09-.49,.01-1.14,.3-1.43,3.73-3.8,5.28-8.47,5.7-13.65,.03-.42,.54-.79,.83-1.19,.31,.37,.63,.75,.74,.89Z"/>
  <path class="cls-1" d="M19.16,28c.41-5.78,2.18-10.58,5.78-14.62,.24-.27,.47-.61,.77-.73,.3-.11,.73-.04,1.01,.12,.11,.06,.08,.65-.08,.87-1.07,1.52-2.31,2.93-3.27,4.51-1.69,2.77-2.31,5.89-2.6,9.09-.01,.16,.04,.36-.03,.47-.27,.41-.59,.78-.89,1.17-.3-.39-.6-.77-.69-.89Z"/>
  <path class="cls-1" d="M26.52,36.12c-5.36-.53-10.2-2.23-14-6.24-.24-.25-.2-.77-.29-1.16,.44,.06,1.04-.03,1.29,.22,3.7,3.71,8.31,5.23,13.38,5.7,.28,.03,.61-.04,.82,.09,.29,.19,.48,.54,.72,.82-.28,.23-.54,.57-.86,.67-.31,.1-.7-.05-1.05-.09Z"/>
</svg>